<svg width="17" height="17" viewBox="0 0 17 17" fill="none" xmlns="http://www.w3.org/2000/svg">
<path d="M8.5 4.25C9.06359 4.25 9.60409 4.02612 10.0026 3.6276C10.4011 3.22909 10.625 2.68859 10.625 2.125C10.625 1.56141 10.4011 1.02091 10.0026 0.622398C9.60409 0.223883 9.06359 0 8.5 0C7.93641 0 7.39591 0.223883 6.9974 0.622398C6.59888 1.02091 6.375 1.56141 6.375 2.125C6.375 2.68859 6.59888 3.22909 6.9974 3.6276C7.39591 4.02612 7.93641 4.25 8.5 4.25ZM1.0625 6.375C0.780707 6.375 0.510457 6.48694 0.311199 6.6862C0.111942 6.88546 0 7.15571 0 7.4375C0 7.71929 0.111942 7.98954 0.311199 8.1888C0.510457 8.38806 0.780707 8.5 1.0625 8.5H15.9375C16.2193 8.5 16.4895 8.38806 16.6888 8.1888C16.8881 7.98954 17 7.71929 17 7.4375C17 7.15571 16.8881 6.88546 16.6888 6.6862C16.4895 6.48694 16.2193 6.375 15.9375 6.375H1.0625ZM0 11.6875C0 11.4057 0.111942 11.1355 0.311199 10.9362C0.510457 10.7369 0.780707 10.625 1.0625 10.625H15.9375C16.2193 10.625 16.4895 10.7369 16.6888 10.9362C16.8881 11.1355 17 11.4057 17 11.6875C17 11.9693 16.8881 12.2395 16.6888 12.4388C16.4895 12.6381 16.2193 12.75 15.9375 12.75H1.0625C0.780707 12.75 0.510457 12.6381 0.311199 12.4388C0.111942 12.2395 0 11.9693 0 11.6875ZM1.0625 14.875C0.780707 14.875 0.510457 14.9869 0.311199 15.1862C0.111942 15.3855 0 15.6557 0 15.9375C0 16.2193 0.111942 16.4895 0.311199 16.6888C0.510457 16.8881 0.780707 17 1.0625 17H15.9375C16.2193 17 16.4895 16.8881 16.6888 16.6888C16.8881 16.4895 17 16.2193 17 15.9375C17 15.6557 16.8881 15.3855 16.6888 15.1862C16.4895 14.9869 16.2193 14.875 15.9375 14.875H1.0625Z" fill="#1DBF73"/>
</svg>