<svg width="21" height="23" viewBox="0 0 21 23" fill="none" xmlns="http://www.w3.org/2000/svg">
<path d="M15 14.4667V16.2948L16.0125 17.3917M7.125 9.91667H1.5M19.5 7.75V5.58333C19.5 4.38672 18.4926 3.41667 17.25 3.41667H3.75C2.50736 3.41667 1.5 4.38672 1.5 5.58333V18.5833C1.5 19.7799 2.50736 20.75 3.75 20.75H7.125M13.875 1.25V5.58333M7.125 1.25V5.58333M20.0625 16.4167C20.0625 19.1091 17.7959 21.2917 15 21.2917C12.2041 21.2917 9.9375 19.1091 9.9375 16.4167C9.9375 13.7243 12.2041 11.5417 15 11.5417C17.7959 11.5417 20.0625 13.7243 20.0625 16.4167Z" stroke="#9E9E9E" stroke-width="1.5" stroke-linecap="round" stroke-linejoin="round"/>
</svg>
