<svg width="22" height="19" viewBox="0 0 22 19" fill="none" xmlns="http://www.w3.org/2000/svg">
<path d="M13 6.92103V5.04572C13.55 4.78833 14.1127 4.59528 14.688 4.46658C15.2627 4.33788 15.8667 4.27354 16.5 4.27354C16.9333 4.27354 17.3583 4.31031 17.775 4.38385C18.1917 4.45739 18.6 4.54932 19 4.65963V6.42463C18.6 6.25916 18.196 6.13524 17.788 6.05288C17.3793 5.96977 16.95 5.92822 16.5 5.92822C15.8667 5.92822 15.2583 6.01574 14.675 6.19077C14.0917 6.36506 13.5333 6.60848 13 6.92103ZM13 12.9882V11.1129C13.55 10.8555 14.1127 10.6625 14.688 10.5338C15.2627 10.4051 15.8667 10.3407 16.5 10.3407C16.9333 10.3407 17.3583 10.3775 17.775 10.451C18.1917 10.5246 18.6 10.6165 19 10.7268V12.4918C18.6 12.3263 18.196 12.2024 17.788 12.1201C17.3793 12.037 16.95 11.9954 16.5 11.9954C15.8667 11.9954 15.2583 12.0781 14.675 12.2436C14.0917 12.4091 13.5333 12.6573 13 12.9882ZM13 9.95463V8.07932C13.55 7.82192 14.1127 7.62887 14.688 7.50018C15.2627 7.37148 15.8667 7.30713 16.5 7.30713C16.9333 7.30713 17.3583 7.3439 17.775 7.41744C18.1917 7.49098 18.6 7.58291 19 7.69322V9.45822C18.6 9.29275 18.196 9.16884 17.788 9.08647C17.3793 9.00337 16.95 8.96182 16.5 8.96182C15.8667 8.96182 15.2583 9.04933 14.675 9.22436C14.0917 9.39865 13.5333 9.64208 13 9.95463ZM12 14.8084C12.7333 14.4223 13.471 14.1325 14.213 13.9391C14.9543 13.7464 15.7167 13.6501 16.5 13.6501C17.1 13.6501 17.6877 13.7053 18.263 13.8156C18.8377 13.9259 19.4167 14.0913 20 14.312V3.39103C19.45 3.13364 18.8793 2.94059 18.288 2.81189C17.696 2.6832 17.1 2.61885 16.5 2.61885C15.7167 2.61885 14.9417 2.72916 14.175 2.94979C13.4083 3.17041 12.6833 3.50135 12 3.9426V14.8084ZM11 18.0626C10.2 17.364 9.33333 16.8216 8.4 16.4355C7.46667 16.0494 6.5 15.8563 5.5 15.8563C4.8 15.8563 4.11267 15.9575 3.438 16.1597C2.76267 16.3619 2.11667 16.6469 1.5 17.0146C1.15 17.2169 0.812667 17.2077 0.488 16.987C0.162667 16.7664 0 16.4447 0 16.0218V2.72916C0 2.52692 0.046 2.33387 0.138 2.15002C0.229333 1.96617 0.366667 1.82827 0.55 1.73635C1.33333 1.31348 2.13767 0.986958 2.963 0.756772C3.78767 0.527322 4.63333 0.412598 5.5 0.412598C6.46667 0.412598 7.41267 0.550488 8.338 0.82627C9.26267 1.10205 10.15 1.51572 11 2.06729C11.85 1.51572 12.7377 1.10205 13.663 0.82627C14.5877 0.550488 15.5333 0.412598 16.5 0.412598C17.3667 0.412598 18.2127 0.527322 19.038 0.756772C19.8627 0.986958 20.6667 1.31348 21.45 1.73635C21.6333 1.82827 21.771 1.96617 21.863 2.15002C21.9543 2.33387 22 2.52692 22 2.72916V16.0218C22 16.4447 21.8377 16.7664 21.513 16.987C21.1877 17.2077 20.85 17.2169 20.5 17.0146C19.8833 16.6469 19.2373 16.3619 18.562 16.1597C17.8873 15.9575 17.2 15.8563 16.5 15.8563C15.5 15.8563 14.5333 16.0494 13.6 16.4355C12.6667 16.8216 11.8 17.364 11 18.0626Z" fill="#7a7a7a"/>
</svg>
