<svg width="15" height="15" viewBox="0 0 15 15" fill="none" xmlns="http://www.w3.org/2000/svg">
<path d="M6.7915 11.0417H8.20817V6.79175H6.7915V11.0417ZM7.49984 5.37508C7.70053 5.37508 7.86888 5.30708 8.00488 5.17108C8.14041 5.03555 8.20817 4.86744 8.20817 4.66675C8.20817 4.46605 8.14041 4.29771 8.00488 4.16171C7.86888 4.02618 7.70053 3.95841 7.49984 3.95841C7.29914 3.95841 7.13103 4.02618 6.9955 4.16171C6.8595 4.29771 6.7915 4.46605 6.7915 4.66675C6.7915 4.86744 6.8595 5.03555 6.9955 5.17108C7.13103 5.30708 7.29914 5.37508 7.49984 5.37508ZM7.49984 14.5834C6.51998 14.5834 5.59914 14.3974 4.73734 14.0252C3.87553 13.6536 3.12588 13.149 2.48838 12.5115C1.85088 11.874 1.34631 11.1244 0.974671 10.2626C0.60256 9.40077 0.416504 8.47994 0.416504 7.50008C0.416504 6.52022 0.60256 5.59939 0.974671 4.73758C1.34631 3.87578 1.85088 3.12612 2.48838 2.48862C3.12588 1.85112 3.87553 1.34632 4.73734 0.974206C5.59914 0.602567 6.51998 0.416748 7.49984 0.416748C8.4797 0.416748 9.40053 0.602567 10.2623 0.974206C11.1241 1.34632 11.8738 1.85112 12.5113 2.48862C13.1488 3.12612 13.6534 3.87578 14.025 4.73758C14.3971 5.59939 14.5832 6.52022 14.5832 7.50008C14.5832 8.47994 14.3971 9.40077 14.025 10.2626C13.6534 11.1244 13.1488 11.874 12.5113 12.5115C11.8738 13.149 11.1241 13.6536 10.2623 14.0252C9.40053 14.3974 8.4797 14.5834 7.49984 14.5834ZM7.49984 13.1667C9.08178 13.1667 10.4217 12.6178 11.5196 11.5199C12.6175 10.422 13.1665 9.08203 13.1665 7.50008C13.1665 5.91814 12.6175 4.57821 11.5196 3.48029C10.4217 2.38237 9.08178 1.83341 7.49984 1.83341C5.91789 1.83341 4.57796 2.38237 3.48005 3.48029C2.38213 4.57821 1.83317 5.91814 1.83317 7.50008C1.83317 9.08203 2.38213 10.422 3.48005 11.5199C4.57796 12.6178 5.91789 13.1667 7.49984 13.1667Z" fill="#1DBF73"/>
</svg>
