<svg width="15" height="13" viewBox="0 0 15 13" fill="none" xmlns="http://www.w3.org/2000/svg">
<path d="M4.66667 2.95825H2.54167C2.16594 2.95825 1.80561 3.10751 1.53993 3.37318C1.27426 3.63886 1.125 3.9992 1.125 4.37492V10.7499C1.125 11.1256 1.27426 11.486 1.53993 11.7517C1.80561 12.0173 2.16594 12.1666 2.54167 12.1666H12.4583C12.8341 12.1666 13.1944 12.0173 13.4601 11.7517C13.7257 11.486 13.875 11.1256 13.875 10.7499V4.37492C13.875 3.9992 13.7257 3.63886 13.4601 3.37318C13.1944 3.10751 12.8341 2.95825 12.4583 2.95825H10.3333M9.625 5.79159L7.5 7.91659M7.5 7.91659L5.375 5.79159M7.5 7.91659V0.833252" stroke="#1DBF73" stroke-width="1.5" stroke-linecap="round" stroke-linejoin="round"/>
</svg>
