<svg width="15" height="15" viewBox="0 0 15 15" fill="none" xmlns="http://www.w3.org/2000/svg">
<path d="M6.31354 2.05787C6.61529 0.814042 8.38471 0.814042 8.68646 2.05787C8.73173 2.24473 8.82049 2.41826 8.9455 2.56433C9.07052 2.71041 9.22825 2.8249 9.40588 2.89849C9.5835 2.97208 9.77599 3.00269 9.96768 2.98782C10.1594 2.97296 10.3448 2.91305 10.509 2.81296C11.602 2.14712 12.8536 3.39804 12.1877 4.49171C12.0878 4.6558 12.028 4.84116 12.0132 5.03271C11.9983 5.22427 12.0289 5.41663 12.1024 5.59414C12.1759 5.77166 12.2903 5.92933 12.4362 6.05433C12.5821 6.17933 12.7554 6.26814 12.9421 6.31354C14.186 6.61529 14.186 8.38471 12.9421 8.68646C12.7553 8.73173 12.5817 8.82049 12.4357 8.9455C12.2896 9.07052 12.1751 9.22825 12.1015 9.40588C12.0279 9.5835 11.9973 9.77599 12.0122 9.96768C12.027 10.1594 12.087 10.3448 12.187 10.509C12.8529 11.602 11.602 12.8536 10.5083 12.1877C10.3442 12.0878 10.1588 12.028 9.96729 12.0132C9.77573 11.9983 9.58337 12.0289 9.40586 12.1024C9.22834 12.1759 9.07067 12.2903 8.94567 12.4362C8.82067 12.5821 8.73186 12.7554 8.68646 12.9421C8.38471 14.186 6.61529 14.186 6.31354 12.9421C6.26827 12.7553 6.17951 12.5817 6.0545 12.4357C5.92948 12.2896 5.77175 12.1751 5.59412 12.1015C5.4165 12.0279 5.22401 11.9973 5.03232 12.0122C4.84063 12.027 4.65516 12.087 4.491 12.187C3.39804 12.8529 2.14642 11.602 2.81225 10.5083C2.9122 10.3442 2.97201 10.1588 2.98684 9.96729C3.00167 9.77573 2.97109 9.58337 2.89758 9.40586C2.82408 9.22834 2.70973 9.07067 2.56382 8.94567C2.41791 8.82067 2.24457 8.73186 2.05787 8.68646C0.814042 8.38471 0.814042 6.61529 2.05787 6.31354C2.24473 6.26827 2.41826 6.17951 2.56433 6.0545C2.71041 5.92948 2.8249 5.77175 2.89849 5.59412C2.97208 5.4165 3.00269 5.22401 2.98782 5.03232C2.97296 4.84063 2.91305 4.65516 2.81296 4.491C2.14712 3.39804 3.39804 2.14642 4.49171 2.81225C5.20004 3.24292 6.11804 2.86183 6.31354 2.05787Z" stroke="#1DBF73" stroke-width="1.5" stroke-linecap="round" stroke-linejoin="round"/>
</svg>
