<svg width="13" height="9" viewBox="0 0 13 9" fill="none" xmlns="http://www.w3.org/2000/svg">
<path d="M8.97905 6.89419V2.10586L11.3732 4.50002L8.97905 6.89419ZM12.372 5.00294C12.4376 4.93741 12.4897 4.85957 12.5253 4.77388C12.5608 4.68819 12.5791 4.59633 12.5791 4.50356C12.5791 4.4108 12.5608 4.31894 12.5253 4.23325C12.4897 4.14756 12.4376 4.06972 12.372 4.00419L9.12072 0.752939C8.68156 0.306689 7.91655 0.618356 7.91655 1.24877V7.74419C7.91655 8.37461 8.68156 8.69336 9.12781 8.24711L12.372 5.00294ZM5.08322 7.75127V1.24877C5.08322 0.618356 4.31822 0.299606 3.87197 0.745856L0.620722 3.99711C0.555057 4.06264 0.502961 4.14047 0.467416 4.22616C0.43187 4.31185 0.413574 4.40371 0.413574 4.49648C0.413574 4.58925 0.43187 4.68111 0.467416 4.7668C0.502961 4.85249 0.555057 4.93033 0.620722 4.99586L3.87197 8.24711C4.31822 8.69336 5.08322 8.38169 5.08322 7.75127Z" fill="#1DBF73"/>
</svg>
